<svg xmlns="http://www.w3.org/2000/svg" viewBox="0 0 97.33 58.86"><defs><style>.cls-1{fill:#f79e4a;}</style></defs><g id="Layer_2" data-name="Layer 2"><g id="Elements"><path class="cls-1" d="M94.75,8.33a5.76,5.76,0,0,1,2.58,0A26.78,26.78,0,0,1,93.57,10a21.41,21.41,0,0,0-6,3.56,14.5,14.5,0,0,0-5,8.53c-.15.38-.15.92-.56,1.12-1.11.63-2.36,1-3.45,1.66a18.5,18.5,0,0,0-3.59,2.89,20.06,20.06,0,0,0-4.63,9.48,18,18,0,0,0-6.87,3.55l-.55-.24c0,.12.16.39.22.52-.44.41-.87.84-1.3,1.28-.21-.25-.43-.49-.65-.72.1.36.21.71.32,1.07a23.24,23.24,0,0,0-4.87,10,12.69,12.69,0,0,0-8.11,1.83c.25,1.43.54,2.86.77,4.3a68.16,68.16,0,0,0-8.22-2.6l.32.45a11.64,11.64,0,0,1-2.77-2.18c.24.43.49.85.73,1.29a7.66,7.66,0,0,1-2.21-2.89c.16.5.31,1,.44,1.51a6.37,6.37,0,0,1-1.45-4c0-.94-.58-1.75-.6-2.69a8.89,8.89,0,0,0-1.37-4,28.92,28.92,0,0,0-6.65-7.63A9.71,9.71,0,0,0,24.08,34a31.94,31.94,0,0,0-1.52-4.84,26.09,26.09,0,0,0-6.13-9.31c-.73-.81-1.69-1.39-2.38-2.23-1.51-3.44-2.85-7-5.18-10a27.39,27.39,0,0,0-5.23-5C2.48,1.68,1.19.91,0,0A41.34,41.34,0,0,1,4.36,1.94a30,30,0,0,1,6.28,3.9,29,29,0,0,1,4.66,5.05c4.77,5.82,9,12,13.34,18.19a41.65,41.65,0,0,1,2.73,4.42c0-.24-.13-.71-.18-1a22.63,22.63,0,0,1,1.53,3c1.16,2.05,2,4.26,3.08,6.36l.57.3c-.12-1.42.12-2.83-.14-4.24a6.22,6.22,0,0,1,1.85,1.61,10.48,10.48,0,0,1,1,2.67V41l.59,1.13c0-.32,0-.95-.06-1.26l.53,1.25c0-.29,0-.88,0-1.17a13.71,13.71,0,0,1,.84,1.3l1-.74c0,.1-.08.3-.1.4l.8-.36c-.24.37-.49.73-.71,1.1,1-1.16,2.51-1.89,3.23-3.31a16.1,16.1,0,0,1,1,4.59,79.57,79.57,0,0,0,8.19-7.15,50.85,50.85,0,0,0,6.39-8.29c1.12-1.72,2.09-3.53,3.3-5.18a10,10,0,0,1,3.16-3.26,14.68,14.68,0,0,1-.59,1.56,56.61,56.61,0,0,1,4.88-4.41,51.26,51.26,0,0,1,4.33-3.28A15.48,15.48,0,0,1,79.07,12,57.29,57.29,0,0,1,89.53,9.2C91.27,8.9,93,8.66,94.75,8.33Z"/></g></g></svg>