<svg xmlns="http://www.w3.org/2000/svg" viewBox="0 0 113.36 46.38"><defs><style>.cls-1{fill:#f79e4a;}</style></defs><g id="Layer_2" data-name="Layer 2"><g id="Elements"><path class="cls-1" d="M6.41,1.1A16,16,0,0,1,12.11,0c2.77.08,5.22,1.48,7.76,2.4,1.85.77,3.92,1.28,5.37,2.74,3.16,3,6.84,5.37,9.77,8.6a15.12,15.12,0,0,1-1-2.21c1.06.32,1.7,1.3,2.45,2a46.56,46.56,0,0,1,4.08,5.77c1.81,2.54,3.85,4.91,5.76,7.38.73-.09,1.46-.15,2.2-.17-.13-.2-.26-.41-.38-.62a9.63,9.63,0,0,1,4.75.67c.76-1.74,2-3.25,2.74-5a9.35,9.35,0,0,1,1.7,4.48A19,19,0,0,1,62.7,28.7c1.33-1.05,2.9-1.81,3.93-3.2,0,1.36,0,2.72-.13,4.08,4.87-.88,9.32-3.21,14.13-4.32A12.24,12.24,0,0,1,84.2,25c0,.65-.58,1-1.06,1.31,5.55-1.23,11.17-2.42,16.88-2.38a40.72,40.72,0,0,1,7.63.78c1.89.39,3.83.55,5.71,1-1.32.68-2.85.62-4.26,1a31.9,31.9,0,0,0-4.84,1.6,10.46,10.46,0,0,0-3.54,2.83c-3.93-2-8.61-1.87-12.74-.64a22.61,22.61,0,0,0-5.46,2.65c-1.4.92-2.58,2.13-3.88,3.18a12.58,12.58,0,0,0-6.88-1.91,19.66,19.66,0,0,0-7.25,1.13,4.4,4.4,0,0,0-2,1.09,8.06,8.06,0,0,1-3,2.43A5.27,5.27,0,0,1,56,38.6a21.68,21.68,0,0,1-9.8,5.85c-1.44.4-2.93-.28-4.37.15-2.07.58-4,1.59-6.21,1.78a2.78,2.78,0,0,0,.21-3.15,9.74,9.74,0,0,0-5.72-3.16c-.4-.13-1-.18-1-.71-.75-3.23-1.2-6.58-2.55-9.64a10.14,10.14,0,0,0-4.88-5.39c-2-1-4.26-1.08-6.4-1.55A24.76,24.76,0,0,0,10.79,12.2C8.84,9.52,5.93,7.76,3,6.32A8.52,8.52,0,0,1,0,4,27.39,27.39,0,0,1,6.41,1.1Z"/></g></g></svg>