<svg xmlns="http://www.w3.org/2000/svg" viewBox="0 0 73.44 72.98"><g id="Layer_2" data-name="Layer 2"><g id="Elements"><path d="M35.4,0h2.66l.27,0a34.42,34.42,0,0,1,6,.74,36.82,36.82,0,0,1,26.78,23,35.71,35.71,0,0,1,2.18,9.4c.07.74.12,1.49.17,2.24v2.66l0,.29c-.08.95-.13,1.9-.24,2.84a34.89,34.89,0,0,1-2.42,9.36,36.43,36.43,0,0,1-12.47,15.9,36,36,0,0,1-15.4,6.48c-.4.07-.42.17-.42-.36V47.76a1.76,1.76,0,0,0,0-.23c0-.14.06-.2.19-.2h8.06c.24,0,.36-.06.36-.31a.52.52,0,0,1,0-.11l.66-4.35c.29-1.83.57-3.67.85-5.5,0-.34,0-.34-.3-.34H42.82c-.36,0-.36,0-.36-.37,0-2.06,0-4.13,0-6.19a10.36,10.36,0,0,1,.14-1.76,4.7,4.7,0,0,1,2.7-3.69,7.46,7.46,0,0,1,3.2-.62h4.17c.39,0,.4,0,.4-.38V15.58c0-.63.05-.52-.53-.61a56.36,56.36,0,0,0-7-.62,17.19,17.19,0,0,0-6.29.89,11.57,11.57,0,0,0-6.58,5.65A15.4,15.4,0,0,0,31,28c-.05,2.81,0,5.62,0,8.42,0,.34,0,.34-.34.34H22c-.33,0-.33,0-.33.33V47c0,.36,0,.36.37.36h8.63c.32,0,.32,0,.32.3V72.69c0,.08,0,.17,0,.28l-.25,0A36,36,0,0,1,23,70.77,36.48,36.48,0,0,1,7,58.28,36.12,36.12,0,0,1,.11,39.46a36.67,36.67,0,0,1,4-19.62A36.49,36.49,0,0,1,17.6,5.37,36.16,36.16,0,0,1,34.25.08Z"/></g></g></svg>