<svg xmlns="http://www.w3.org/2000/svg" viewBox="0 0 68.15 68.15">
  <title>icon-ig</title>
  <g id="Layer_2" data-name="Layer 2">
    <g id="Elements">
      <g>
        <circle cx="34.07" cy="34.07" r="34.07"/>
        <g>
          <path d="M34.07,16.27c5.69,0,6.37,0,8.62.12a11.66,11.66,0,0,1,4,.74,6.38,6.38,0,0,1,2.45,1.59,6.52,6.52,0,0,1,1.6,2.45,11.74,11.74,0,0,1,.73,4c.1,2.24.13,2.92.13,8.61s0,6.36-.13,8.61a11.74,11.74,0,0,1-.73,4,7.07,7.07,0,0,1-4,4,11.92,11.92,0,0,1-4,.74c-2.25.1-2.93.12-8.62.12s-6.36,0-8.61-.12a11.92,11.92,0,0,1-3.95-.74,7.07,7.07,0,0,1-4.05-4,11.74,11.74,0,0,1-.73-4c-.11-2.25-.13-2.92-.13-8.61s0-6.37.13-8.61a11.74,11.74,0,0,1,.73-4,6.52,6.52,0,0,1,1.6-2.45,6.38,6.38,0,0,1,2.45-1.59,11.66,11.66,0,0,1,3.95-.74c2.25-.1,2.92-.12,8.61-.12m0-3.84c-5.78,0-6.51,0-8.78.13a15.42,15.42,0,0,0-5.17,1A10.33,10.33,0,0,0,16.34,16a10.66,10.66,0,0,0-2.46,3.78,15.93,15.93,0,0,0-1,5.17c-.1,2.28-.13,3-.13,8.79s0,6.51.13,8.78a16.06,16.06,0,0,0,1,5.18,10.54,10.54,0,0,0,2.46,3.77,10.23,10.23,0,0,0,3.78,2.46,15.42,15.42,0,0,0,5.17,1c2.27.1,3,.13,8.78.13s6.52,0,8.79-.13a15.42,15.42,0,0,0,5.17-1,10.32,10.32,0,0,0,3.78-2.46,10.54,10.54,0,0,0,2.46-3.77,16.06,16.06,0,0,0,1-5.18c.1-2.27.13-3,.13-8.78s0-6.51-.13-8.79a15.93,15.93,0,0,0-1-5.17A10.66,10.66,0,0,0,51.81,16,10.41,10.41,0,0,0,48,13.55a15.42,15.42,0,0,0-5.17-1c-2.27-.11-3-.13-8.79-.13" style="fill: #f79e4a"/>
          <path d="M34.07,22.79a10.95,10.95,0,1,0,11,11,10.94,10.94,0,0,0-11-11m0,18.05a7.11,7.11,0,1,1,7.11-7.1,7.1,7.1,0,0,1-7.11,7.1" style="fill: #f79e4a"/>
          <path d="M48,22.36a2.56,2.56,0,1,1-2.56-2.56A2.56,2.56,0,0,1,48,22.36" style="fill: #f79e4a"/>
        </g>
      </g>
    </g>
  </g>
</svg>
