<svg xmlns="http://www.w3.org/2000/svg" viewBox="0 0 91.42 40.28"><g id="Layer_2" data-name="Layer 2"><g id="Elements"><path d="M14.19,0A12.55,12.55,0,0,1,20.27,1.2a43.46,43.46,0,0,1,6.16,3.48c0-.85-.05-1.69-.09-2.53A4.44,4.44,0,0,1,28,5.63a13.06,13.06,0,0,0,4.8,9.06A21.17,21.17,0,0,0,36.88,17c0-1.85.52-3.64.68-5.47A9.71,9.71,0,0,1,41,15.9c0-.27,0-.82,0-1.09.24.43.48.87.71,1.31,0-.37,0-.73,0-1.08.47.53.92,1.09,1.41,1.61-.08-.43-.17-.85-.25-1.27.54.53,1,1.11,1.55,1.65,0-.32,0-1-.06-1.3.26.4.51.81.75,1.22,1.37-1.06,3.07-1.5,4.57-2.32l.16.1c-.17,2.18-.48,4.55-2,6.28,1.24,0,2.42.42,3.64.55A21,21,0,0,0,63.4,18.47C65.19,17.34,66.94,16,69,15.53a4.28,4.28,0,0,1,1.78.1c-.71.44-1.45.83-2.12,1.31,3.32,0,6.65.18,10,.51a8.46,8.46,0,0,1,3.76,1.14c3.34,2.08,5.68,5.38,7.5,8.81.45.94,1.14,1.77,1.52,2.75-.23.42-.81.25-1.2.28a14.57,14.57,0,0,0-7.47,1.16A14.78,14.78,0,0,0,77.84,36a17.91,17.91,0,0,0-9.17-.8l-.18-.86c-.21.33-.39.69-.58,1l-1.6.55c-.07-.56-.15-1.13-.26-1.67a13.36,13.36,0,0,0-.66,2.15A21.32,21.32,0,0,0,61.09,40c-.52.74-1.32,0-1.92-.24a21.36,21.36,0,0,0-8.53-2.38c-.45-.38-.89-.92-1.53-.92s-1.08.5-1.5.89a23,23,0,0,0-7.52,1.86,4,4,0,0,1-2.61.54c-1.62-.39-3.3-.9-5-.49a7.54,7.54,0,0,0-2,.82,15.75,15.75,0,0,0-2.19-4.56,8.62,8.62,0,0,0-3.7-2.56c-.41-.21-1-.32-1.13-.81A33.87,33.87,0,0,0,21,27.55c.07-.39.13-.78.2-1.16-.34.31-.67.63-1,1q-1.09-.78-2.25-1.44c.31-1.05.66-2.08.95-3.13-.78.81-1.44,1.71-2.16,2.57a26.16,26.16,0,0,0-4-1.07c-.66-.08-.92-.76-1-1.33-.22-1.56-.46-3.11-.78-4.65a10.31,10.31,0,0,1,0-2.15c-.12-.3-.49-.4-.71-.59a23.63,23.63,0,0,0-1.67-3.82,18,18,0,0,0-5.7-5.93C2,5.18.93,4.79,0,4.17,2,3.11,4.32,2.72,6.47,2A36.78,36.78,0,0,1,14.19,0ZM51.45,35.6c.56.44,1.29,1,2,.61a.72.72,0,0,0,.09-1.31A1.5,1.5,0,0,0,51.45,35.6Z"/></g></g></svg>