<svg xmlns="http://www.w3.org/2000/svg" viewBox="0 0 60.64 61.95"><g id="Layer_2" data-name="Layer 2"><g id="Elements"><path d="M57.29.84C58.43.63,59.51.21,60.64,0a8,8,0,0,1-2.75,2.83,13,13,0,0,0-4.32,4.42A15,15,0,0,0,52.2,16.5a42,42,0,0,0,1.15,5.32,15.17,15.17,0,0,0-6.42,2.61c-.33-.14-.66-.65-1-.36a7.27,7.27,0,0,0,.29,1,15.91,15.91,0,0,1-1.41,1.17c-.66,1.35-1.63,2.51-2.24,3.89a20.38,20.38,0,0,1-2.24-1.38c.6.75,1.24,1.47,1.89,2.17a14.76,14.76,0,0,0-.8,7.24c.12,1.14.55,2.33.21,3.47-.46.69-1.33.9-2,1.25a10.53,10.53,0,0,0-4.42,3,22.55,22.55,0,0,0-2-1.17c.43.67,1,1.26,1.45,1.9a8.46,8.46,0,0,0-1.06,6.38,15.71,15.71,0,0,0,1.27,2.35,37.14,37.14,0,0,0,4.11,5.62l-.71.31a22.85,22.85,0,0,0-6.09-.81c-2.28,0-4.5.56-6.75.8a30.24,30.24,0,0,1-8.12-.06c.59.26,1.19.51,1.77.8a11,11,0,0,1-3.46-1.06c-.86-.43-1.6-1-2.42-1.54a18,18,0,0,0,2.62,2.24A11.26,11.26,0,0,1,12,59.19c0,.13.05.39.06.52a15.14,15.14,0,0,1-4.25-4.19A22.9,22.9,0,0,0,9.2,57.7a8.49,8.49,0,0,1-3-5.3,18,18,0,0,0-2.57-.94,5.91,5.91,0,0,1-1.85-.73,2.92,2.92,0,0,1-.82-1.85C.57,48.45.06,48,0,47.43s0-1.3.55-1.58a4,4,0,0,0,2.2-2.31c-.07-.71-.41-1.37-.48-2.08a4.61,4.61,0,0,1,.21-1.84,3.85,3.85,0,0,0,.86,1.65,21.3,21.3,0,0,1,2.13,1.89l1-.09c.64-1.57,2.53-2.16,3-3.81a7.85,7.85,0,0,1,1.78,4.56,1.21,1.21,0,0,0,1.07-1,10.25,10.25,0,0,0-.87-6.33,18.2,18.2,0,0,0-2.76-3.49c-.9-1-2.08-1.7-2.77-2.87a4.76,4.76,0,0,1-.66-1.87c.36.36.7.73,1,1.09-.3-1.35-.33-2.74-.64-4.09a4.66,4.66,0,0,1-.23-2.39A23,23,0,0,1,8,18.47,7.82,7.82,0,0,1,12.53,15a15.75,15.75,0,0,0-.92,3.57,6.12,6.12,0,0,0,.46,2.22l-.59.54.77-.11a11.3,11.3,0,0,0,4.71,5,10.37,10.37,0,0,0-.3,4c.1.56.08,1.14.13,1.7a9.14,9.14,0,0,1,1,1.95c.12.47.56.75.85,1.11a22.71,22.71,0,0,0,1.88,2c.18-3.81.06-7.63.27-11.45a16.64,16.64,0,0,1,2.09-7.66,3.32,3.32,0,0,1,1.16-1c-.18.8-.4,1.59-.53,2.39,1-1.26,1.81-2.67,2.77-4,1.48-2,3-4,4.58-5.89A17.13,17.13,0,0,1,37.6,4.7,37.74,37.74,0,0,1,47.74,2.5C51,2.15,54.12,1.43,57.29.84ZM33.88,42.37a.48.48,0,0,0,0,.54c.32.49.79,1.07,1.45,1C35.51,43.07,34.65,42.38,33.88,42.37ZM10.69,58.11c0,.15,0,.31,0,.47l.11-.34.69.88.34-.17A5.64,5.64,0,0,0,10.69,58.11Z"/></g></g></svg>